<svg xmlns="http://www.w3.org/2000/svg" viewBox="0 0 40 40">
  <rect width="40" height="40" rx="12" fill="#000000" />
  <path 
      fill="#34d399" 
      d="M8,8 L8,32 L20,32 C26.627,32 30,28.5 30,25 C30,22.5 28.5,21 26,20.5 C28,19.5 29,18 29,16 C29,11.5 25.5,8 20,8 L8,8 Z M12,12 L19,12 C22,12 24,13 24,15 C24,17 22,18 19,18 L12,18 L12,12 Z M12,21 L20,21 C23,21 25,22 25,25 C25,27.5 22.5,28 20,28 L12,28 L12,21 Z" 
      opacity="0.9"
  />
  <path 
      fill="#34d399" 
      d="M4,10 L4,30 L6,30 L6,10 L4,10 Z" 
      opacity="0.5"
  />
</svg>
